<svg xmlns="http://www.w3.org/2000/svg" viewBox="0 0 48 48"><defs><style>.cls-1{fill:#919191;}.cls-2{fill:#dad7e5;}.cls-3{fill:#edebf2;}.cls-4{fill:#374f68;}.cls-5{fill:#425b72;}.cls-6{fill:#f26674;}.cls-7{fill:#2c435e;}</style></defs><title>cloud data server</title><g id="cloud_data_server" data-name="cloud data server"><path class="cls-1" d="M23,46H6a1,1,0,0,1,0-2H23A1,1,0,0,1,23,46Z"/><path class="cls-1" d="M42,46H25a1,1,0,0,1,0-2H42A1,1,0,0,1,42,46Z"/><path class="cls-1" d="M23,44V38a1,1,0,0,1,2,0v6A1,1,0,0,1,23,44Z"/><path class="cls-2" d="M47,24a9,9,0,0,1-9,9H11A10,10,0,0,1,9.27,13.15,15,15,0,0,1,39,15.06,9,9,0,0,1,47,24Z"/><path class="cls-3" d="M47,24a9,9,0,0,1-9,9c-29.24,0-27.56.06-28.62-.14a10,10,0,0,1,2.89-18.71A15,15,0,0,1,30.19,2.34,15,15,0,0,1,39,15.06,9,9,0,0,1,47,24Z"/><rect class="cls-4" x="13" y="19" width="22" height="8"/><rect class="cls-4" x="13" y="31" width="22" height="8"/><path class="cls-5" d="M35,31v6H18a3,3,0,0,1-3-3V31Z"/><path class="cls-5" d="M35,19v6H18a3,3,0,0,1-3-3V19Z"/><path class="cls-6" d="M17,24a1,1,0,1,1,.92-.62A1,1,0,0,1,17,24Z"/><path class="cls-6" d="M20.29,23.71a1,1,0,0,1,1.42-1.42A1,1,0,1,1,20.29,23.71Z"/><path class="cls-3" d="M31,24H26a1,1,0,0,1,0-2h5A1,1,0,0,1,31,24Z"/><path class="cls-6" d="M17,36a1,1,0,1,1,1-1A1,1,0,0,1,17,36Z"/><path class="cls-6" d="M21,36a1,1,0,1,1,.71-1.71A1,1,0,0,1,21,36Z"/><path class="cls-3" d="M31,36H26a1,1,0,0,1,0-2h5A1,1,0,0,1,31,36Z"/><rect class="cls-4" x="15" y="27" width="18" height="4"/><rect class="cls-7" x="15" y="27" width="18" height="2"/><path class="cls-4" d="M26,45a2,2,0,1,1-2.82-1.82A2,2,0,0,1,26,45Z"/><path class="cls-5" d="M25.82,45.82a2,2,0,0,1-2.64-2.64A2,2,0,0,1,25.82,45.82Z"/></g></svg>